<?xml version="1.0" encoding="UTF-8" standalone="no"?>
<!-- Created with Inkscape (http://www.inkscape.org/) -->

<svg
   xmlns:dc="http://purl.org/dc/elements/1.1/"
   xmlns:cc="http://creativecommons.org/ns#"
   xmlns:rdf="http://www.w3.org/1999/02/22-rdf-syntax-ns#"
   xmlns:svg="http://www.w3.org/2000/svg"
   xmlns="http://www.w3.org/2000/svg"
   xmlns:sodipodi="http://sodipodi.sourceforge.net/DTD/sodipodi-0.dtd"
   xmlns:inkscape="http://www.inkscape.org/namespaces/inkscape"
   width="1122"
   height="793"
   id="svg2"
   version="1.1"
   inkscape:version="0.48.2 r9819"
   sodipodi:docname="New document 1">
  <defs
     id="defs4" />
  <sodipodi:namedview
     id="base"
     pagecolor="#ffffff"
     bordercolor="#666666"
     borderopacity="1.0"
     inkscape:pageopacity="0.0"
     inkscape:pageshadow="2"
     inkscape:zoom="0.53484849"
     inkscape:cx="450.6615"
     inkscape:cy="441.70352"
     inkscape:document-units="px"
     inkscape:current-layer="layer1"
     showgrid="false"
     inkscape:window-width="1432"
     inkscape:window-height="895"
     inkscape:window-x="75"
     inkscape:window-y="75"
     inkscape:window-maximized="0" />
  <metadata
     id="metadata7">
    <rdf:RDF>
      <cc:Work
         rdf:about="">
        <dc:format>image/svg+xml</dc:format>
        <dc:type
           rdf:resource="http://purl.org/dc/dcmitype/StillImage" />
        <dc:title></dc:title>
      </cc:Work>
    </rdf:RDF>
  </metadata>
  <g
     inkscape:label="Layer 1"
     inkscape:groupmode="layer"
     id="layer1"
     transform="translate(0,-259.36218)">
    <g
       id="g3042"
       transform="matrix(1.3451897,0,0,1.3451897,303.34873,-418.79712)">
      <path
         style="fill-rule:evenodd"
         inkscape:connector-curvature="0"
         d="m 131.67158,983.43578 h 19.73971 v 32.38922 c -4.43136,2.1755 -13.21352,2.7394 -20.38426,2.7394 -20.62598,0 -27.95787,-17.7254 -27.95787,-40.68795 0,-22.96252 7.33189,-40.76855 28.03844,-40.76855 10.31298,0 16.59746,1.85311 26.42703,5.88163 v -8.45987 c -5.15649,-2.65882 -13.37465,-5.31765 -26.42703,-5.31765 -28.19959,0 -37.30403,21.6734 -37.30403,48.58387 0,26.91042 8.9433,48.58382 37.30403,48.58382 13.21352,0 22.64023,-2.1753 28.92471,-5.1565 v -45.84443 h -28.36073 v 8.05701 z m 51.48439,29.97222 v -51.48447 h -8.45988 v 50.59817 c 0,10.0712 4.67307,13.858 13.85809,13.858 v -7.1708 c -3.86738,0 -5.39821,-1.289 -5.39821,-5.6399 v -0.161 z m 2.01425,-70.25734 c 0,-3.54508 -2.65882,-6.28447 -6.28447,-6.28447 -3.62567,0 -6.20392,2.73939 -6.20392,6.28447 0,3.5451 2.65883,6.28449 6.20392,6.28449 3.54508,0 6.28447,-2.73939 6.28447,-6.28449 z m 34.96748,45.84447 c -12.08554,-1.04742 -14.34149,-3.86737 -14.34149,-9.42672 0,-6.2039 2.65881,-10.7964 15.1472,-10.7964 8.45987,0 13.37465,1.28912 18.28944,2.90052 v -7.5736 c -5.55935,-2.41711 -12.24668,-3.14224 -18.12831,-3.14224 -17.72544,0 -23.5265,9.66843 -23.5265,18.61172 0,8.70159 3.7868,15.14726 21.99567,16.75864 12.48838,1.04744 14.26094,5.07585 14.26094,10.79645 0,5.8815 -3.5451,11.4409 -16.59748,11.4409 -8.94329,0 -14.98606,-1.5308 -18.77285,-2.9005 v 7.5736 c 4.02851,1.6114 12.73009,3.1422 18.77285,3.1422 19.17572,0 25.29906,-9.6684 25.29906,-19.4174 0,-10.31306 -4.27022,-16.35579 -22.15682,-17.96717 h -0.24171 z m 69.12926,-19.90084 v -6.92904 h -19.498 v -20.14256 l -8.70157,2.49767 v 17.00033 l -12.56897,3.54508 v 3.86738 h 12.56897 v 40.28505 c 0,12.3274 9.58785,17.1615 20.14255,17.1615 1.53083,0 4.18965,-0.1612 5.55935,-0.4028 v -7.1707 c -1.53084,0.2416 -3.30338,0.2416 -4.91479,0.2416 -7.81532,0 -12.08554,-3.1422 -12.08554,-10.7964 v -39.23768 h 19.498 v 0.16113 -0.0806 z"
         id="path2987" />
      <g
         transform="matrix(0.89475264,0,0,0.89475264,14.656573,571.40134)"
         style="fill:none"
         id="g3020">
        <path
           style="fill:#00c58e"
           inkscape:connector-curvature="0"
           d="m 123,292 -1,-1 c -2,-4 -2,-8 -2,-12 H 25 L 167,27 226,134 245,120 186,13 C 185,11 178,0 166,0 161,0 153,2 147,13 L 4,268 c -1,2 -7,14 -1,24 2,5 8,10 21,10 h 120 c -13,0 -19,-5 -21,-10 z"
           id="path3022" />
        <path
           style="fill:#108775"
           inkscape:connector-curvature="0"
           d="M 395,269 280,62 c -2,-2 -8,-13 -20,-13 -5,0 -12,2 -19,13 l -15,24 v 48 l 34,-59 114,204 h -43"
           id="path3024" />
        <path
           style="fill:#2f495e;fill-rule:nonzero"
           inkscape:connector-curvature="0"
           d="m 332,292 v -1 l 1,-2 c 1,-3 2,-7 1,-10 L 330,268 240,110 227,86 h -1 l -13,24 -91,158 -3,11 a 21,21 0 0 0 2,13 c 3,5 9,10 21,10 h 168 c 3,0 16,0 22,-10 z M 226,134 309,279 H 144 l 82,-145 z"
           id="path3026" />
      </g>
      <text
         sodipodi:linespacing="125%"
         id="text3038"
         y="923.8584"
         x="162.19566"
         style="font-size:102.8015213px;font-style:normal;font-variant:normal;font-weight:normal;font-stretch:normal;text-align:start;line-height:125%;letter-spacing:0px;word-spacing:0px;writing-mode:lr-tb;text-anchor:start;fill:#000000;fill-opacity:1;stroke:none;font-family:Times New Roman;-inkscape-font-specification:'Times New Roman,'"
         xml:space="preserve"><tspan
           style="font-style:normal;font-variant:normal;font-weight:normal;font-stretch:normal;font-family:Open Sans;-inkscape-font-specification:Open Sans"
           y="923.8584"
           x="162.19566"
           id="tspan3040"
           sodipodi:role="line">+</tspan></text>
    </g>
  </g>
</svg>
