<?xml version="1.0" encoding="UTF-8" standalone="no"?>
<!-- Created with Inkscape (http://www.inkscape.org/) -->

<svg
   xmlns:dc="http://purl.org/dc/elements/1.1/"
   xmlns:cc="http://creativecommons.org/ns#"
   xmlns:rdf="http://www.w3.org/1999/02/22-rdf-syntax-ns#"
   xmlns:svg="http://www.w3.org/2000/svg"
   xmlns="http://www.w3.org/2000/svg"
   xmlns:sodipodi="http://sodipodi.sourceforge.net/DTD/sodipodi-0.dtd"
   xmlns:inkscape="http://www.inkscape.org/namespaces/inkscape"
   width="492"
   height="492"
   id="svg3050"
   version="1.1"
   inkscape:version="0.48.2 r9819"
   sodipodi:docname="no-results-generic.svg">
  <defs
     id="defs3052" />
  <sodipodi:namedview
     id="base"
     pagecolor="#ffffff"
     bordercolor="#666666"
     borderopacity="1.0"
     inkscape:pageopacity="0.0"
     inkscape:pageshadow="2"
     inkscape:zoom="0.70710678"
     inkscape:cx="326.94885"
     inkscape:cy="182.79024"
     inkscape:document-units="px"
     inkscape:current-layer="layer1"
     showgrid="false"
     width="1127px"
     inkscape:window-width="1082"
     inkscape:window-height="811"
     inkscape:window-x="408"
     inkscape:window-y="147"
     inkscape:window-maximized="0" />
  <metadata
     id="metadata3055">
    <rdf:RDF>
      <cc:Work
         rdf:about="">
        <dc:format>image/svg+xml</dc:format>
        <dc:type
           rdf:resource="http://purl.org/dc/dcmitype/StillImage" />
        <dc:title />
      </cc:Work>
    </rdf:RDF>
  </metadata>
  <g
     inkscape:label="Layer 1"
     inkscape:groupmode="layer"
     id="layer1"
     transform="translate(0,-560.36218)">
    <g
       id="g3079"
       transform="matrix(1.4634777,0,0,1.4634777,-141.32283,-368.84466)">
      <path
         sodipodi:nodetypes="sccscccccccscsccscssccscscscscc"
         inkscape:connector-curvature="0"
         d="m 363.30301,739.20479 c -8.97164,0 -16.61375,2.57511 -22.92715,7.72535 -6.23037,5.15081 -10.92392,12.0877 -14.08063,20.8101 -3.07364,8.72239 -4.61059,18.48309 -4.61059,29.2821 0,11.21443 2.49175,19.68814 7.47605,25.42057 9.61796,8.21298 19.97792,11.48202 28.81847,11.84932 l -3.82395,27.15679 h 24.17374 l 3.86251,-27.4135 c 6.92962,0.33234 14.08804,-0.56729 22.5543,-4.36119 5.31653,-2.90749 9.38663,-6.97759 12.21107,-12.21149 2.90753,-5.23332 4.3616,-11.29752 4.3616,-18.19258 0,-8.05769 -2.57517,-14.16372 -7.72558,-18.31692 -5.15041,-4.15376 -12.66879,-6.23093 -22.55429,-6.23093 h -24.6717 l -5.48585,38.96027 c -3.28697,-1.62105 -13.11357,-3.02321 -14.27513,-15.16478 -0.61701,-6.45041 0.54035,-12.87617 1.62003,-19.18962 1.07996,-6.39654 2.86593,-11.71296 5.35807,-15.94981 2.49215,-4.23686 5.64881,-6.35471 9.47007,-6.35471 3.73822,0 7.22734,1.6199 10.46717,4.85973 l 12.21164,-12.46074 c -5.89808,-6.81198 -13.37504,-10.21796 -22.42985,-10.21796 z m 24.74504,52.58881 h 1.74448 c 2.49216,0 4.27811,0.62287 5.35814,1.86916 1.07984,1.16322 1.61996,3.15673 1.61996,5.9811 0,5.15025 -0.87195,9.30459 -2.6165,12.46132 -1.66145,3.07364 -4.48617,4.60988 -8.47359,4.60988 h -1.1215 z"
         style="fill:#000000;stroke:none"
         id="path3898" />
      <path
         inkscape:connector-curvature="0"
         d="m 203.44293,675.62548 a 96.40929,96.40929 0 0 1 96.40928,96.4093 c 0,23.87983 -8.751,45.83148 -23.13822,62.74019 l 4.00469,4.00469 h 11.71743 l 74.161,74.16099 -22.24831,22.24831 -74.16099,-74.161 v -11.71743 l -4.00469,-4.00469 c -16.90871,14.38722 -38.86036,23.13822 -62.74019,23.13822 a 96.40929,96.40929 0 0 1 -96.4093,-96.40928 96.40929,96.40929 0 0 1 96.4093,-96.4093 m 0,29.6644 c -37.0805,0 -66.7449,29.6644 -66.7449,66.7449 0,37.08048 29.6644,66.74488 66.7449,66.74488 37.08048,0 66.74488,-29.6644 66.74488,-66.74488 0,-37.0805 -29.6644,-66.7449 -66.74488,-66.7449 z"
         id="path3041" />
    </g>
  </g>
</svg>
