<?xml version="1.0" encoding="UTF-8" standalone="no"?>
<svg
   xmlns:dc="http://purl.org/dc/elements/1.1/"
   xmlns:cc="http://creativecommons.org/ns#"
   xmlns:rdf="http://www.w3.org/1999/02/22-rdf-syntax-ns#"
   xmlns:svg="http://www.w3.org/2000/svg"
   xmlns="http://www.w3.org/2000/svg"
   xmlns:sodipodi="http://sodipodi.sourceforge.net/DTD/sodipodi-0.dtd"
   xmlns:inkscape="http://www.inkscape.org/namespaces/inkscape"
   role="img"
   viewBox="0 0 24 24"
   version="1.1"
   id="svg3771"
   sodipodi:docname="strahinjaorg.svg"
   inkscape:version="0.92.4 (5da689c313, 2019-01-14)">
  <metadata
     id="metadata3777">
    <rdf:RDF>
      <cc:Work
         rdf:about="">
        <dc:format>image/svg+xml</dc:format>
        <dc:type
           rdf:resource="http://purl.org/dc/dcmitype/StillImage" />
        <dc:title>JSFiddle icon</dc:title>
      </cc:Work>
    </rdf:RDF>
  </metadata>
  <defs
     id="defs3775" />
  <sodipodi:namedview
     pagecolor="#ffffff"
     bordercolor="#666666"
     borderopacity="1"
     objecttolerance="10"
     gridtolerance="10"
     guidetolerance="10"
     inkscape:pageopacity="0"
     inkscape:pageshadow="2"
     inkscape:window-width="691"
     inkscape:window-height="480"
     id="namedview3773"
     showgrid="false"
     inkscape:zoom="4.1488889"
     inkscape:cx="23.95061"
     inkscape:cy="19.646985"
     inkscape:window-x="592"
     inkscape:window-y="120"
     inkscape:window-maximized="0"
     inkscape:current-layer="svg3771" />
  <title
     id="title3767">JSFiddle icon</title>
  <path
     id="path3898"
     style="fill:#000000;stroke:none;stroke-width:0.04921911px;stroke-linecap:butt;stroke-linejoin:miter;stroke-opacity:1"
     d="m 10.783056,1.4057484 c -1.5657055,0 -2.8993729,0.4494056 -4.0011643,1.3482401 C 5.6945922,3.6528228 4.875487,4.8634136 4.3245886,6.3856274 3.7881874,7.9078469 3.5199701,9.6112136 3.5199701,11.495859 c 0,1.95714 0.4348498,3.435943 1.3046899,4.436259 1.6784918,1.433361 3.4864736,2.003893 5.0292905,2.06797 l -0.667342,4.739263 H 13.40532 l 0.674073,-4.78406 c 1.209332,0.05775 2.458586,-0.09898 3.936089,-0.761162 0.927823,-0.507407 1.638123,-1.217707 2.131032,-2.131038 0.507407,-0.913332 0.761168,-1.971642 0.761168,-3.174921 0,-1.406235 -0.449406,-2.471782 -1.34824,-3.1966431 C 18.660608,7.9666603 17.348535,7.6041865 15.623353,7.6041865 H 11.31774 L 10.36037,14.403346 C 9.7867385,14.120422 8.0718404,13.87579 7.8691336,11.756858 7.761448,10.631203 7.9633934,9.5097324 8.1518544,8.407941 8.3403195,7.2916466 8.6520011,6.3638292 9.0869215,5.6244654 9.5218405,4.8851016 10.072733,4.5154951 10.739605,4.5154951 c 0.652379,0 1.26129,0.2826747 1.826687,0.8480706 l 2.13113,-2.1745819 C 13.668111,2.0002028 12.363264,1.4057484 10.783056,1.4057484 Z m 4.318405,9.1776336 h 0.304444 c 0.43492,0 0.746601,0.108711 0.935072,0.326172 0.188459,0.202962 0.282715,0.550887 0.282715,1.043795 0,0.898829 -0.152175,1.623777 -0.456619,2.174676 -0.289947,0.536401 -0.782915,0.80452 -1.478786,0.80452 h -0.19572 z"
     inkscape:connector-curvature="0"
     sodipodi:nodetypes="sccscccccccscsccscssccscscscscc" />
</svg>
